# xmcd
#
# Track frame offsets:
#	150
#	17122
#	38428
#	61058
#	84433
#	104694
#	135206
#	162887
#	187204
#
# Disc length: 2790 seconds
#
# Revision: 0
# Processed by: cddbd v1.5.1PL0 Copyright (c) Steve Scherf et al.
# Submitted via: EasyCDDAExtractor 4.6.9.1
#
DISCID=690ae409
DTITLE=Depeche Mode -  Live Moscow 25.09.1998 - CD1
DYEAR=1998
DGENRE=live
TTITLE0=Painkiller
TTITLE1=A Question Of Time
TTITLE2=World In My Eyes
TTITLE3=Policy Of Truth
TTITLE4=It's No Good
TTITLE5=Never Let Me Down Again
TTITLE6=Walking In My Shoes
TTITLE7=Only When I Lose Myself
TTITLE8=A Question Of Lust
EXTD=
EXTT0=
EXTT1=
EXTT2=
EXTT3=
EXTT4=
EXTT5=
EXTT6=
EXTT7=
EXTT8=
PLAYORDER=
